<mxfile host="app.diagrams.net" modified="2024-05-24T11:28:49.229Z" agent="Mozilla/5.0 (Macintosh; Intel Mac OS X 10_15_7) AppleWebKit/537.36 (KHTML, like Gecko) Chrome/124.0.0.0 Safari/537.36" etag="wbJdPxOPWRrV25n-6r-f" version="24.4.7" type="device">
  <diagram name="Page-1" id="WiONXf_k01k_L-G6eadu">
    <mxGraphModel dx="1122" dy="760" grid="1" gridSize="10" guides="1" tooltips="1" connect="1" arrows="1" fold="1" page="1" pageScale="1" pageWidth="827" pageHeight="1169" math="0" shadow="0">
      <root>
        <mxCell id="0" />
        <mxCell id="1" parent="0" />
        <mxCell id="UKIZE2WPuy_fCeLIXrCE-1" value="" style="rounded=0;whiteSpace=wrap;html=1;" vertex="1" parent="1">
          <mxGeometry x="190" y="130" width="670" height="460" as="geometry" />
        </mxCell>
        <mxCell id="UKIZE2WPuy_fCeLIXrCE-2" value="Easy" style="text;html=1;align=center;verticalAlign=middle;whiteSpace=wrap;rounded=0;fillColor=#f8cecc;strokeColor=#b85450;" vertex="1" parent="1">
          <mxGeometry x="384" y="230" width="60" height="30" as="geometry" />
        </mxCell>
        <mxCell id="UKIZE2WPuy_fCeLIXrCE-3" value="Hard" style="text;html=1;align=center;verticalAlign=middle;whiteSpace=wrap;rounded=0;fillColor=#f8cecc;strokeColor=#b85450;" vertex="1" parent="1">
          <mxGeometry x="600" y="230" width="60" height="30" as="geometry" />
        </mxCell>
        <mxCell id="UKIZE2WPuy_fCeLIXrCE-4" value="Medium" style="text;html=1;align=center;verticalAlign=middle;whiteSpace=wrap;rounded=0;fillColor=#f8cecc;strokeColor=#b85450;" vertex="1" parent="1">
          <mxGeometry x="490" y="230" width="60" height="30" as="geometry" />
        </mxCell>
        <mxCell id="UKIZE2WPuy_fCeLIXrCE-7" value="&lt;h1 style=&quot;margin-top: 0px;&quot;&gt;Text&lt;/h1&gt;&lt;p&gt;Lorem ipsum dolor sit amet, consectetur adipisicing elit, sed do eiusmod tempor incididunt ut labore et dolore magna aliqua.&lt;/p&gt;" style="text;html=1;whiteSpace=wrap;overflow=hidden;rounded=0;fillColor=#e1d5e7;strokeColor=#9673a6;" vertex="1" parent="1">
          <mxGeometry x="384" y="280" width="286" height="160" as="geometry" />
        </mxCell>
        <mxCell id="UKIZE2WPuy_fCeLIXrCE-8" value="" style="rounded=1;whiteSpace=wrap;html=1;align=left;" vertex="1" parent="1">
          <mxGeometry x="384" y="460" width="286" height="50" as="geometry" />
        </mxCell>
        <mxCell id="UKIZE2WPuy_fCeLIXrCE-9" value="Timer" style="ellipse;whiteSpace=wrap;html=1;aspect=fixed;fillColor=#dae8fc;strokeColor=#6c8ebf;" vertex="1" parent="1">
          <mxGeometry x="690" y="230" width="80" height="80" as="geometry" />
        </mxCell>
        <mxCell id="UKIZE2WPuy_fCeLIXrCE-14" style="edgeStyle=orthogonalEdgeStyle;rounded=0;orthogonalLoop=1;jettySize=auto;html=1;entryX=0;entryY=0.5;entryDx=0;entryDy=0;" edge="1" parent="1" source="UKIZE2WPuy_fCeLIXrCE-11" target="UKIZE2WPuy_fCeLIXrCE-2">
          <mxGeometry relative="1" as="geometry" />
        </mxCell>
        <mxCell id="UKIZE2WPuy_fCeLIXrCE-11" value="Difficutly" style="text;html=1;align=center;verticalAlign=middle;whiteSpace=wrap;rounded=0;" vertex="1" parent="1">
          <mxGeometry x="270" y="230" width="60" height="30" as="geometry" />
        </mxCell>
        <mxCell id="UKIZE2WPuy_fCeLIXrCE-13" style="edgeStyle=orthogonalEdgeStyle;rounded=0;orthogonalLoop=1;jettySize=auto;html=1;entryX=0;entryY=0.5;entryDx=0;entryDy=0;" edge="1" parent="1" source="UKIZE2WPuy_fCeLIXrCE-12" target="UKIZE2WPuy_fCeLIXrCE-7">
          <mxGeometry relative="1" as="geometry" />
        </mxCell>
        <mxCell id="UKIZE2WPuy_fCeLIXrCE-12" value="Generated Text" style="text;html=1;align=center;verticalAlign=middle;whiteSpace=wrap;rounded=0;" vertex="1" parent="1">
          <mxGeometry x="270" y="320" width="60" height="30" as="geometry" />
        </mxCell>
        <mxCell id="UKIZE2WPuy_fCeLIXrCE-16" style="edgeStyle=orthogonalEdgeStyle;rounded=0;orthogonalLoop=1;jettySize=auto;html=1;entryX=0.5;entryY=0;entryDx=0;entryDy=0;" edge="1" parent="1" source="UKIZE2WPuy_fCeLIXrCE-15" target="UKIZE2WPuy_fCeLIXrCE-9">
          <mxGeometry relative="1" as="geometry" />
        </mxCell>
        <mxCell id="UKIZE2WPuy_fCeLIXrCE-15" value="Timer" style="text;html=1;align=center;verticalAlign=middle;whiteSpace=wrap;rounded=0;" vertex="1" parent="1">
          <mxGeometry x="270" y="180" width="60" height="30" as="geometry" />
        </mxCell>
        <mxCell id="UKIZE2WPuy_fCeLIXrCE-18" style="edgeStyle=orthogonalEdgeStyle;rounded=0;orthogonalLoop=1;jettySize=auto;html=1;entryX=0;entryY=0.5;entryDx=0;entryDy=0;" edge="1" parent="1" source="UKIZE2WPuy_fCeLIXrCE-17" target="UKIZE2WPuy_fCeLIXrCE-8">
          <mxGeometry relative="1" as="geometry" />
        </mxCell>
        <mxCell id="UKIZE2WPuy_fCeLIXrCE-17" value="User input" style="text;html=1;align=center;verticalAlign=middle;whiteSpace=wrap;rounded=0;" vertex="1" parent="1">
          <mxGeometry x="280" y="470" width="60" height="30" as="geometry" />
        </mxCell>
      </root>
    </mxGraphModel>
  </diagram>
</mxfile>
